PathFileType	4	(X/Y/Z)	Kaydara	
DataRate	CameraRate	NumFrames	NumMarkers	Units	OrigDataRate	OrigDataStartFrame	OrigNumFrames	
120.00	120.00	11	29	mm	120.00	1780	2847	
Frame#	Time	Pelvis			Left_hip			Left_knee			Left_ankle			Left_foot			Left_foot_End			Right_hip			Right_knee			Right_ankle			Right_foot			Right_foot_End			Spine1			Spine2			Spine3			Neck			Head			Head_End			Left_collar			Left_shoulder			Left_elbow			Left_wrist			Left_palm			Left_palm_End			Right_collar			Right_shoulder			Right_elbow			Right_wrist			Right_palm			Right_palm_End			
		X1	Y1	Z1	X2	Y2	Z2	X3	Y3	Z3	X4	Y4	Z4	X5	Y5	Z5	X6	Y6	Z6	X7	Y7	Z7	X8	Y8	Z8	X9	Y9	Z9	X10	Y10	Z10	X11	Y11	Z11	X12	Y12	Z12	X13	Y13	Z13	X14	Y14	Z14	X15	Y15	Z15	X16	Y16	Z16	X17	Y17	Z17	X18	Y18	Z18	X19	Y19	Z19	X20	Y20	Z20	X21	Y21	Z21	X22	Y22	Z22	X23	Y23	Z23	X24	Y24	Z24	X25	Y25	Z25	X26	Y26	Z26	X27	Y27	Z27	X28	Y28	Z28	X29	Y29	Z29	

1780	14.825	752.34001	901.77002	-861.63002	668.84976	842.40060	-865.92525	722.93679	536.76764	-1100.39058	816.67974	223.88790	-822.61449	740.76596	139.33499	-908.06627	740.76596	139.33499	-908.06627	771.23947	802.20865	-819.87285	858.50663	509.36422	-1055.96108	894.45214	120.08489	-897.32377	958.65322	40.37518	-1004.93222	958.65322	40.37518	-1004.93222	788.11823	1020.64399	-870.98795	829.44473	1152.29534	-875.69492	853.78442	1202.79717	-878.86584	949.68443	1391.80860	-863.75497	997.39782	1467.18463	-914.69774	997.39782	1467.18463	-914.69774	836.03559	1336.86233	-893.21507	746.84789	1421.93673	-941.42008	623.71813	1199.52062	-977.97138	456.70399	1010.79243	-1063.43978	392.72307	949.67347	-1069.95620	392.72307	949.67347	-1069.95620	961.06582	1277.48253	-824.03787	1074.31267	1269.49235	-777.14551	1037.91688	1014.89786	-829.17676	981.23392	929.92912	-1078.31317	947.77183	871.16277	-1137.31340	947.77183	871.16277	-1137.31340 
1781	14.833	750.77003	901.05003	-860.83000	667.27724	841.67756	-865.03254	722.93378	536.47347	-1099.68913	816.94585	223.65757	-821.93210	741.01028	139.11897	-907.37868	741.01028	139.11897	-907.37868	769.70084	801.51127	-819.03316	858.33824	509.52817	-1055.67711	894.43093	120.11429	-897.40387	958.61978	40.39840	-1005.01503	958.61978	40.39840	-1005.01503	786.54030	1019.91928	-870.27781	827.88330	1151.56020	-875.12965	852.24280	1202.04585	-878.40434	948.34087	1390.99923	-863.83538	996.01040	1466.23924	-915.01971	996.01040	1466.23924	-915.01971	834.56982	1336.10358	-892.91571	745.34218	1421.05505	-941.26340	621.94447	1198.69234	-977.23125	454.54040	1010.05086	-1062.12630	390.66655	948.80619	-1068.51158	390.66655	948.80619	-1068.51158	959.72879	1276.72528	-823.97041	1073.02329	1268.67872	-777.20294	1038.75368	1013.87902	-829.67166	982.18558	929.12142	-1078.90608	948.82370	870.33304	-1137.94110	948.82370	870.33304	-1137.94110 
1782	14.842	749.26003	900.37003	-860.03998	665.77468	840.97870	-864.12252	723.35844	536.32626	-1099.03081	817.46566	223.64317	-821.15648	741.52742	139.11578	-906.61177	741.52742	139.11578	-906.61177	768.25612	800.85592	-818.21405	858.18416	509.67462	-1055.35847	894.46961	120.12373	-897.46692	958.67953	40.40157	-1005.06087	958.67953	40.40157	-1005.06087	784.99610	1019.24173	-869.58576	826.33705	1150.87721	-874.59976	850.71619	1201.34576	-877.98986	947.02460	1390.23741	-864.02166	994.68875	1465.30184	-915.46812	994.68875	1465.30184	-915.46812	833.14226	1335.38898	-892.75339	743.86143	1420.24645	-941.16793	620.17781	1197.95164	-976.56906	452.39409	1009.38580	-1060.88069	388.66656	947.98806	-1067.25789	388.66656	947.98806	-1067.25789	958.38387	1276.03839	-823.93443	1071.76411	1267.94822	-777.38277	1039.67181	1012.93609	-830.19524	983.45285	928.34617	-1079.56559	950.24198	869.51899	-1138.64709	950.24198	869.51899	-1138.64709 
1783	14.850	747.86003	899.70001	-859.22997	664.38502	840.28454	-863.16989	723.38904	536.12499	-1098.36427	817.59496	223.53862	-820.41457	741.63642	139.01901	-905.85951	741.63642	139.01901	-905.85951	766.94234	800.20804	-817.39065	858.01995	509.82071	-1055.06931	894.52248	120.14690	-897.53151	958.72542	40.42330	-1005.12857	958.72542	40.42330	-1005.12857	783.55042	1018.57746	-868.87472	824.89698	1150.20387	-874.07693	849.31260	1200.64477	-877.61286	945.94992	1389.42486	-864.43037	993.65065	1464.23372	-916.21409	993.65065	1464.23372	-916.21409	831.92063	1334.66959	-892.75405	742.54168	1419.41315	-941.18706	618.62664	1197.17453	-976.12869	450.48213	1008.72924	-1059.98987	386.75048	947.32640	-1066.27615	386.75048	947.32640	-1066.27615	957.21186	1275.33226	-824.01401	1070.75817	1267.22627	-777.87169	1040.91522	1012.00101	-830.97277	985.22224	927.55734	-1080.51065	952.24548	868.68560	-1139.67883	952.24548	868.68560	-1139.67883 
1784	14.858	746.38000	899.01001	-858.34000	662.91650	839.56894	-862.13497	723.33300	536.00752	-1097.74316	817.82530	223.46750	-819.83856	741.85517	138.95293	-905.27818	741.85517	138.95293	-905.27818	765.55662	799.53445	-816.50477	857.99481	510.06837	-1054.78119	894.73628	120.25076	-897.65523	958.92803	40.53045	-1005.26140	958.92803	40.53045	-1005.26140	782.02031	1017.89547	-868.07076	823.37847	1149.51008	-873.47559	847.84072	1199.91586	-877.18572	944.87742	1388.55671	-864.97996	992.63500	1463.04075	-917.17786	992.63500	1463.04075	-917.17786	830.67906	1333.91228	-892.83262	741.19906	1418.59109	-941.19222	616.95381	1196.46129	-975.64984	448.36210	1008.16139	-1058.93780	384.48516	946.87616	-1064.88823	384.48516	946.87616	-1064.88823	956.00354	1274.60685	-824.12567	1069.69774	1266.53469	-778.34298	1042.21282	1011.10870	-831.75087	987.31207	926.77062	-1081.49993	954.66384	867.85736	-1140.80882	954.66384	867.85736	-1140.80882 
1785	14.867	744.82002	898.32001	-857.47002	661.37548	838.84311	-861.11766	723.22708	535.93626	-1097.19546	817.97753	223.43311	-819.33730	742.00913	138.91983	-904.77974	742.00913	138.91983	-904.77974	764.10944	798.85718	-815.65638	857.78222	510.18866	-1054.41771	894.72221	120.23496	-897.67646	958.89505	40.51061	-1005.29092	958.89505	40.51061	-1005.29092	780.39338	1017.21951	-867.27386	821.74490	1148.82752	-872.88619	846.24657	1199.19979	-876.78647	943.64954	1387.71917	-865.66993	991.46249	1461.84559	-918.32422	991.46249	1461.84559	-918.32422	829.29761	1333.15127	-893.03833	739.80206	1417.87400	-941.29213	615.28976	1195.83614	-975.37638	446.36079	1007.58833	-1058.09679	382.29082	946.44750	-1063.42482	382.29082	946.44750	-1063.42482	954.64893	1273.94508	-824.29477	1068.47047	1265.90251	-778.82433	1043.41551	1010.27917	-832.48263	989.63695	926.11298	-1082.53366	957.39536	867.17158	-1142.03672	957.39536	867.17158	-1142.03672 
1786	14.875	743.14003	897.58003	-856.54999	659.71681	838.06452	-860.05254	723.08871	535.78928	-1096.53634	817.91674	223.39221	-818.58537	741.93181	138.88882	-904.02289	741.93181	138.88882	-904.02289	762.55128	798.12240	-814.78040	857.57217	510.31182	-1054.04423	894.71064	120.23296	-897.66173	958.90013	40.50044	-1005.26020	958.90013	40.50044	-1005.26020	778.64015	1016.49703	-866.40704	819.97876	1148.10020	-872.22424	844.51657	1198.43838	-876.33185	942.28911	1386.83427	-866.43265	990.11657	1460.58402	-919.60018	990.11657	1460.58402	-919.60018	827.76647	1332.33614	-893.22014	738.22265	1417.08344	-941.34105	613.42398	1195.13829	-974.97883	444.15758	1006.84772	-1056.90837	379.89818	945.83066	-1061.28987	379.89818	945.83066	-1061.28987	953.19286	1273.25214	-824.50839	1067.16344	1265.24669	-779.40620	1042.05173	1009.62756	-833.05806	989.60203	925.70549	-1083.47314	957.82981	866.74896	-1143.21321	957.82981	866.74896	-1143.21321 
1787	14.883	741.46004	896.83998	-855.56999	658.05854	837.28622	-858.93729	722.83124	535.62572	-1095.82618	817.80071	223.30564	-817.83698	741.78628	138.81850	-903.26433	741.78628	138.81850	-903.26433	760.99745	797.37570	-813.87512	857.45325	510.49207	-1053.67742	894.73465	120.26118	-897.70876	958.90620	40.52225	-1005.31318	958.90620	40.52225	-1005.31318	776.88508	1015.77755	-865.44892	818.21722	1147.37548	-871.42833	842.79928	1197.67652	-875.72216	941.00074	1385.90461	-866.93946	988.85133	1459.29127	-920.58643	988.85133	1459.29127	-920.58643	826.28406	1331.53429	-893.15018	736.68352	1416.35054	-941.04350	611.70256	1194.43357	-974.18676	442.24489	1005.87599	-1055.10054	377.86313	944.92377	-1058.47177	377.86313	944.92377	-1058.47177	951.78665	1272.48474	-824.54803	1065.95203	1264.50146	-779.93727	1041.04934	1008.86604	-833.60897	990.01996	925.32731	-1084.44533	958.75321	866.38082	-1144.46136	958.75321	866.38082	-1144.46136 
1788	14.892	739.69002	896.09001	-854.73999	656.30007	836.51203	-857.96161	722.74500	535.51046	-1095.22526	818.20637	223.07320	-817.53638	742.14237	138.60667	-902.93998	742.14237	138.60667	-902.93998	759.34377	796.61361	-813.12879	857.36677	510.60972	-1053.34607	894.88594	120.24380	-897.77281	959.07127	40.50702	-1005.37060	959.07127	40.50702	-1005.37060	775.05811	1015.04278	-864.63994	816.40665	1146.62860	-870.77047	841.04293	1196.88791	-875.23874	939.71463	1384.91563	-867.49642	987.61142	1457.94070	-921.59371	987.61142	1457.94070	-921.59371	824.79416	1330.71355	-893.15704	735.13592	1415.68761	-940.66108	609.99628	1193.71824	-972.84071	440.64874	1004.35229	-1052.07992	376.52669	943.10365	-1054.99810	376.52669	943.10365	-1054.99810	950.35481	1271.64149	-824.68065	1064.71560	1263.66025	-780.57284	1042.51489	1007.82957	-834.49920	992.86247	924.74021	-1085.76080	962.11921	865.81004	-1146.06262	962.11921	865.81004	-1146.06262 
1789	14.900	737.69997	895.32997	-854.03999	654.29493	835.76682	-857.14296	722.50941	535.44578	-1094.76655	818.18195	223.06453	-817.08733	742.10961	138.59475	-902.48030	742.10961	138.59475	-902.48030	757.40838	795.83396	-812.50161	857.17885	510.73667	-1053.07690	894.87703	120.25026	-897.84971	959.06603	40.51275	-1005.44477	959.06603	40.51275	-1005.44477	773.07054	1014.28089	-863.95329	814.48736	1145.83823	-870.23235	839.18835	1196.04964	-874.87830	938.33689	1383.86764	-868.21193	986.27609	1456.51824	-922.77384	986.27609	1456.51824	-922.77384	823.20746	1329.83966	-893.29660	733.45072	1414.98342	-940.30821	608.09185	1193.02259	-971.68342	438.94760	1002.78600	-1049.25379	375.19106	941.15698	-1052.17215	375.19106	941.15698	-1052.17215	948.83550	1270.74466	-824.96374	1063.39299	1262.85063	-781.35351	1045.24966	1006.75922	-835.55933	996.83397	924.16295	-1087.22454	966.54128	865.27540	-1147.79542	966.54128	865.27540	-1147.79542 
1790	14.908	735.59998	894.48997	-853.25996	652.18221	834.93906	-856.25392	722.17900	535.29206	-1094.20987	818.20636	222.90543	-816.65922	742.10483	138.43716	-902.02767	742.10483	138.43716	-902.02767	755.36485	794.97043	-811.80486	856.97083	510.75935	-1052.66034	894.80391	120.16262	-897.74384	958.97522	40.40268	-1005.33284	958.97522	40.40268	-1005.33284	770.96927	1013.44137	-863.17207	812.45094	1144.97176	-869.58635	837.21561	1195.13525	-874.40763	936.84179	1382.73554	-868.81921	984.81653	1455.00854	-923.84935	984.81653	1455.00854	-923.84935	821.50040	1328.88880	-893.31294	731.55644	1413.98040	-940.06040	606.04567	1192.00227	-970.69727	436.97069	1001.12591	-1046.83379	373.56736	939.13388	-1049.75876	373.56736	939.13388	-1049.75876	947.20571	1269.76204	-825.14985	1061.99563	1261.87753	-782.15340	1053.25774	1005.44202	-837.06000	1005.72045	923.30258	-1089.04198	975.73255	864.47612	-1149.82351	975.73255	864.47612	-1149.82351 
